<svg width="21" height="19" viewBox="0 0 21 19" fill="none" xmlns="http://www.w3.org/2000/svg">
<path d="M13.3902 4.29828C12.7663 4.29791 12.1452 4.3816 11.5436 4.54711C11.3061 4.15965 11.0176 3.80588 10.6859 3.49529L11.5527 2.25844C11.6076 2.17998 11.6466 2.09147 11.6673 1.99796C11.688 1.90444 11.6902 1.80776 11.6735 1.71344C11.6569 1.61911 11.6219 1.52898 11.5704 1.4482C11.5189 1.36741 11.4521 1.29756 11.3736 1.24262C11.2951 1.18768 11.2066 1.14873 11.1131 1.128C11.0196 1.10727 10.9229 1.10516 10.8286 1.12179C10.7343 1.13842 10.6441 1.17347 10.5634 1.22493C10.4826 1.27639 10.4127 1.34326 10.3578 1.42172L9.49098 2.65766C8.77818 2.29776 7.99078 2.11043 7.19228 2.11078C7.13942 2.11078 7.08655 2.11078 7.03369 2.11078L6.77028 0.626018C6.75645 0.529272 6.72332 0.436292 6.67285 0.352604C6.62238 0.268916 6.5556 0.196227 6.47648 0.138858C6.39736 0.0814883 6.30752 0.0406086 6.21229 0.018648C6.11706 -0.00331266 6.01839 -0.00590606 5.92214 0.011022C5.82589 0.02795 5.73402 0.064054 5.652 0.117188C5.56998 0.170323 5.49947 0.239403 5.44468 0.320325C5.38988 0.401246 5.35191 0.492357 5.33302 0.588243C5.31413 0.68413 5.31471 0.782834 5.33473 0.878492L5.59723 2.36782C4.78854 2.63529 4.05948 3.10055 3.47626 3.72133L2.23486 2.85271C2.15646 2.79642 2.06767 2.75625 1.97363 2.73454C1.87959 2.71283 1.78218 2.71 1.68704 2.72622C1.5919 2.74244 1.50092 2.77738 1.41939 2.82903C1.33786 2.88067 1.26739 2.94799 1.21207 3.02708C1.15675 3.10616 1.11769 3.19545 1.09714 3.28974C1.07658 3.38404 1.07496 3.48149 1.09235 3.57642C1.10974 3.67135 1.14581 3.76189 1.19846 3.84277C1.25111 3.92366 1.31929 3.99329 1.39905 4.04763L2.63499 4.91534C2.27381 5.62799 2.08642 6.416 2.08811 7.21495C2.08811 7.2669 2.08811 7.31977 2.08811 7.37172L0.603347 7.63422C0.423632 7.6657 0.26225 7.76342 0.151057 7.90807C0.039865 8.05273 -0.0130566 8.23381 0.00273928 8.41558C0.0185352 8.59735 0.101901 8.76659 0.236379 8.88989C0.370858 9.0132 0.546677 9.08161 0.729129 9.08162C0.771593 9.08156 0.813976 9.0779 0.855821 9.07068L2.34332 8.80818C2.47402 9.2061 2.65342 9.58633 2.87744 9.94021C2.17998 10.588 1.69376 11.4309 1.48208 12.359C1.27041 13.287 1.3431 14.2573 1.69069 15.1435C2.03828 16.0297 2.64465 16.7907 3.43085 17.3274C4.21704 17.864 5.14662 18.1516 6.09853 18.1525H13.3902C15.2274 18.1525 16.9893 17.4226 18.2884 16.1236C19.5875 14.8245 20.3173 13.0625 20.3173 11.2254C20.3173 9.38819 19.5875 7.62626 18.2884 6.32718C16.9893 5.0281 15.2274 4.29828 13.3902 4.29828ZM3.54645 7.21495C3.54688 6.44281 3.79245 5.69075 4.24776 5.06714C4.70307 4.44354 5.34461 3.98059 6.07994 3.74501C6.81526 3.50943 7.60639 3.51339 8.33931 3.75631C9.07224 3.99924 9.70912 4.46859 10.1582 5.09672C8.67074 5.87948 7.51735 7.17471 6.91155 8.74256C5.95301 8.5771 4.96678 8.70976 4.08603 9.12263C3.73341 8.54879 3.54664 7.88848 3.54645 7.21495ZM13.3902 16.6941H6.09853C5.64975 16.6933 5.20591 16.6004 4.79445 16.4212C4.383 16.242 4.01267 15.9804 3.70637 15.6524C3.40008 15.3244 3.16432 14.937 3.01368 14.5143C2.86305 14.0915 2.80073 13.6424 2.83059 13.1946C2.86044 12.7468 2.98184 12.3099 3.18727 11.9109C3.3927 11.5119 3.67779 11.1593 4.02492 10.8748C4.37205 10.5904 4.77384 10.3802 5.20544 10.2572C5.63705 10.1342 6.08929 10.1011 6.53421 10.1599C6.50048 10.3759 6.47679 10.5965 6.46403 10.8189C6.45291 11.0122 6.51906 11.2021 6.64795 11.3467C6.77683 11.4913 6.95788 11.5788 7.15126 11.59C7.34465 11.6011 7.53453 11.5349 7.67914 11.406C7.82375 11.2771 7.91124 11.0961 7.92236 10.9027C7.94281 10.539 8.00023 10.1783 8.09371 9.82628C8.09371 9.8117 8.10192 9.79711 8.10465 9.78253C8.37265 8.79765 8.91067 7.90731 9.65796 7.21205C10.4052 6.51679 11.332 6.0443 12.3336 5.84794C13.3353 5.65158 14.3719 5.73916 15.3263 6.10079C16.2808 6.46243 17.1152 7.08372 17.7352 7.8945C18.3553 8.70528 18.7363 9.67327 18.8352 10.6892C18.9342 11.705 18.7472 12.7284 18.2952 13.6436C17.8433 14.5588 17.1446 15.3294 16.2778 15.8685C15.4111 16.4075 14.4109 16.6935 13.3902 16.6941Z" fill="#60646C"/>
</svg>
