<svg width="24" height="24" viewBox="0 0 24 24" fill="none" xmlns="http://www.w3.org/2000/svg">
<path d="M15.375 6.75001C14.7333 6.74962 14.0944 6.83571 13.4756 7.00595C13.2314 6.60742 12.9347 6.24353 12.5934 5.92407L13.485 4.65189C13.5415 4.57118 13.5816 4.48014 13.6029 4.38396C13.6242 4.28777 13.6264 4.18833 13.6093 4.09131C13.5922 3.99429 13.5561 3.90158 13.5032 3.81849C13.4503 3.7354 13.3815 3.66355 13.3008 3.60704C13.2201 3.55053 13.129 3.51047 13.0329 3.48915C12.9367 3.46782 12.8372 3.46565 12.7402 3.48276C12.6432 3.49986 12.5505 3.53591 12.4674 3.58884C12.3843 3.64178 12.3125 3.71056 12.2559 3.79126L11.3644 5.06251C10.6312 4.69233 9.82132 4.49965 9.00001 4.50001C8.94563 4.50001 8.89126 4.50001 8.83688 4.50001L8.56595 2.97282C8.55173 2.87331 8.51765 2.77768 8.46574 2.6916C8.41382 2.60552 8.34514 2.53075 8.26376 2.47174C8.18238 2.41274 8.08997 2.37069 7.99202 2.3481C7.89407 2.32551 7.79258 2.32284 7.69358 2.34026C7.59458 2.35767 7.50008 2.3948 7.41572 2.44946C7.33135 2.50411 7.25883 2.57516 7.20247 2.6584C7.14611 2.74163 7.10705 2.83534 7.08763 2.93397C7.0682 3.03259 7.0688 3.13412 7.08938 3.23251L7.35938 4.76438C6.52759 5.0395 5.7777 5.51805 5.17782 6.15657L3.90094 5.26313C3.82031 5.20524 3.72898 5.16392 3.63225 5.14159C3.53553 5.11925 3.43533 5.11634 3.33747 5.13303C3.23961 5.14971 3.14604 5.18565 3.06218 5.23878C2.97832 5.2919 2.90584 5.36114 2.84894 5.44248C2.79204 5.52383 2.75186 5.61566 2.73072 5.71266C2.70958 5.80965 2.7079 5.90987 2.72579 6.00752C2.74368 6.10516 2.78078 6.19829 2.83493 6.28149C2.88909 6.36469 2.95922 6.43631 3.04126 6.4922L4.31251 7.3847C3.94101 8.11771 3.74826 8.92824 3.75001 9.75001C3.75001 9.80345 3.75001 9.85782 3.75001 9.91126L2.22282 10.1813C2.03797 10.2136 1.87198 10.3141 1.75761 10.4629C1.64324 10.6117 1.5888 10.798 1.60505 10.9849C1.6213 11.1719 1.70705 11.346 1.84537 11.4728C1.98369 11.5996 2.16453 11.67 2.35219 11.67C2.39587 11.67 2.43947 11.6662 2.48251 11.6588L4.01251 11.3888C4.14694 11.798 4.33146 12.1891 4.56188 12.5531C3.8445 13.2195 3.34438 14.0864 3.12666 15.041C2.90894 15.9956 2.98371 16.9936 3.34123 17.9051C3.69875 18.8166 4.32245 19.5993 5.1311 20.1513C5.93976 20.7034 6.8959 20.9991 7.87501 21H15.375C17.2647 21 19.0769 20.2493 20.4131 18.9131C21.7493 17.5769 22.5 15.7647 22.5 13.875C22.5 11.9853 21.7493 10.1731 20.4131 8.83687C19.0769 7.50068 17.2647 6.75001 15.375 6.75001ZM5.25001 9.75001C5.25046 8.95581 5.50304 8.18226 5.97136 7.54084C6.43968 6.89941 7.09955 6.42324 7.85588 6.18093C8.61221 5.93862 9.42595 5.94269 10.1798 6.19256C10.9337 6.44242 11.5888 6.92518 12.0506 7.57126C10.5207 8.37639 9.33436 9.70862 8.71126 11.3213C7.72533 11.1511 6.71092 11.2875 5.80501 11.7122C5.44231 11.122 5.25021 10.4428 5.25001 9.75001ZM15.375 19.5H7.87501C7.41341 19.4992 6.95688 19.4036 6.53367 19.2193C6.11046 19.035 5.72955 18.7659 5.41451 18.4285C5.09946 18.0911 4.85697 17.6927 4.70202 17.2579C4.54708 16.823 4.48299 16.3611 4.51369 15.9005C4.5444 15.4399 4.66927 14.9905 4.88057 14.5801C5.09186 14.1697 5.3851 13.807 5.74215 13.5145C6.0992 13.2219 6.51247 13.0057 6.95641 12.8792C7.40034 12.7527 7.8655 12.7186 8.32313 12.7791C8.28845 13.0013 8.26407 13.2281 8.25095 13.4569C8.23951 13.6558 8.30756 13.8511 8.44012 13.9998C8.57269 14.1486 8.75891 14.2386 8.95782 14.25C9.15673 14.2614 9.35204 14.1934 9.50078 14.0608C9.64952 13.9283 9.73951 13.742 9.75095 13.5431C9.77199 13.1691 9.83104 12.7981 9.9272 12.4359C9.9272 12.4209 9.93563 12.4059 9.93845 12.3909C10.2141 11.3779 10.7675 10.4622 11.5361 9.74703C12.3048 9.0319 13.258 8.54592 14.2883 8.34394C15.3185 8.14197 16.3847 8.23205 17.3665 8.60402C18.3482 8.97599 19.2064 9.61503 19.8442 10.449C20.4819 11.2829 20.8738 12.2786 20.9756 13.3235C21.0774 14.3684 20.885 15.4209 20.4202 16.3623C19.9554 17.3037 19.2366 18.0963 18.3451 18.6508C17.4536 19.2052 16.4249 19.4994 15.375 19.5Z" fill="#1C2024"/>
</svg>
