<svg width="17" height="21" viewBox="0 0 17 21" fill="none" xmlns="http://www.w3.org/2000/svg">
<path d="M12.5625 3.72635C11.4045 2.38895 10.1011 1.18465 8.67656 0.135727C8.55046 0.0473874 8.40022 0 8.24625 0C8.09228 0 7.94204 0.0473874 7.81594 0.135727C6.39399 1.18509 5.09317 2.38937 3.9375 3.72635C1.36031 6.68604 0 9.80604 0 12.7498C0 14.9378 0.869194 17.0362 2.41637 18.5834C3.96354 20.1306 6.06196 20.9998 8.25 20.9998C10.438 20.9998 12.5365 20.1306 14.0836 18.5834C15.6308 17.0362 16.5 14.9378 16.5 12.7498C16.5 9.80604 15.1397 6.68604 12.5625 3.72635ZM13.8591 16.4998H2.64094C2.32955 16.0329 2.07761 15.529 1.89094 14.9998H14.6128C14.425 15.5292 14.1718 16.0331 13.8591 16.4998ZM15 12.7498C14.9998 13.0004 14.9854 13.2508 14.9569 13.4998H1.54312C1.51456 13.2508 1.50016 13.0004 1.5 12.7498C1.5 12.4998 1.51125 12.2498 1.53375 11.9998H14.9662C14.9887 12.2498 15 12.4998 15 12.7498ZM8.25 1.68729C9.5775 2.72791 13.5806 6.16291 14.7037 10.4998H1.79625C2.91937 6.16479 6.9225 2.72979 8.25 1.68729ZM4.01344 17.9998H12.4866C11.2878 18.9702 9.79229 19.4997 8.25 19.4997C6.70771 19.4997 5.21216 18.9702 4.01344 17.9998Z" fill="#1C2024"/>
</svg>
