<svg width="18" height="19" viewBox="0 0 18 19" fill="none" xmlns="http://www.w3.org/2000/svg">
<path d="M8.75 0C3.84362 0 0 2.24219 0 5.10417V13.8542C0 16.7161 3.84362 18.9583 8.75 18.9583C13.6564 18.9583 17.5 16.7161 17.5 13.8542V5.10417C17.5 2.24219 13.6564 0 8.75 0ZM16.0417 9.47917C16.0417 10.356 15.3234 11.2501 14.072 11.9328C12.6629 12.7012 10.7725 13.125 8.75 13.125C6.72747 13.125 4.83711 12.7012 3.428 11.9328C2.17656 11.2501 1.45833 10.356 1.45833 9.47917V7.9625C3.01328 9.32969 5.67201 10.2083 8.75 10.2083C11.828 10.2083 14.4867 9.32604 16.0417 7.9625V9.47917ZM3.428 2.65052C4.83711 1.88216 6.72747 1.45833 8.75 1.45833C10.7725 1.45833 12.6629 1.88216 14.072 2.65052C15.3234 3.3332 16.0417 4.22734 16.0417 5.10417C16.0417 5.98099 15.3234 6.87513 14.072 7.55781C12.6629 8.32617 10.7725 8.75 8.75 8.75C6.72747 8.75 4.83711 8.32617 3.428 7.55781C2.17656 6.87513 1.45833 5.98099 1.45833 5.10417C1.45833 4.22734 2.17656 3.3332 3.428 2.65052ZM14.072 16.3078C12.6629 17.0762 10.7725 17.5 8.75 17.5C6.72747 17.5 4.83711 17.0762 3.428 16.3078C2.17656 15.6251 1.45833 14.731 1.45833 13.8542V12.3375C3.01328 13.7047 5.67201 14.5833 8.75 14.5833C11.828 14.5833 14.4867 13.701 16.0417 12.3375V13.8542C16.0417 14.731 15.3234 15.6251 14.072 16.3078Z" fill="#60646C"/>
</svg>
