<svg width="17" height="21" viewBox="0 0 17 21" fill="none" xmlns="http://www.w3.org/2000/svg">
<path d="M12.2135 3.62284C11.0877 2.32259 9.82055 1.15175 8.43555 0.131957C8.31295 0.0460711 8.16688 0 8.01719 0C7.8675 0 7.72143 0.0460711 7.59883 0.131957C6.21638 1.15217 4.9517 2.323 3.82813 3.62284C1.32253 6.50032 0 9.53365 0 12.3956C0 14.5229 0.84505 16.563 2.34925 18.0672C3.85345 19.5714 5.89358 20.4165 8.02083 20.4165C10.1481 20.4165 12.1882 19.5714 13.6924 18.0672C15.1966 16.563 16.0417 14.5229 16.0417 12.3956C16.0417 9.53365 14.7191 6.50032 12.2135 3.62284ZM13.4741 16.0415H2.56758C2.26485 15.5876 2.0199 15.0977 1.83841 14.5831H14.2069C14.0243 15.0978 13.7781 15.5877 13.4741 16.0415ZM14.5833 12.3956C14.5832 12.6393 14.5692 12.8827 14.5414 13.1248H1.50026C1.47249 12.8827 1.45849 12.6393 1.45833 12.3956C1.45833 12.1526 1.46927 11.9095 1.49115 11.6665H14.5505C14.5724 11.9095 14.5833 12.1526 14.5833 12.3956ZM8.02083 1.64042C9.31146 2.65214 13.2034 5.99172 14.2953 10.2081H1.74635C2.83828 5.99355 6.73021 2.65396 8.02083 1.64042ZM3.90195 17.4998H12.1397C10.9743 18.4433 9.52029 18.958 8.02083 18.958C6.52138 18.958 5.06738 18.4433 3.90195 17.4998Z" fill="#60646C"/>
</svg>
