<svg width="24" height="17" viewBox="0 0 24 17" fill="none" xmlns="http://www.w3.org/2000/svg">
<path d="M14.9476 5.10417C15.4524 5.10417 15.9458 4.95449 16.3655 4.67406C16.7852 4.39364 17.1123 3.99506 17.3054 3.52872C17.4986 3.06239 17.5491 2.54925 17.4507 2.0542C17.3522 1.55914 17.1091 1.1044 16.7522 0.747489C16.3953 0.390574 15.9406 0.147511 15.4455 0.0490387C14.9505 -0.049434 14.4373 0.00110577 13.971 0.194267C13.5047 0.387428 13.1061 0.714535 12.8256 1.13422C12.5452 1.55391 12.3955 2.04733 12.3955 2.55208C12.3955 3.22894 12.6644 3.87807 13.143 4.35668C13.6216 4.83529 14.2708 5.10417 14.9476 5.10417ZM14.9476 1.45833C15.1639 1.45833 15.3754 1.52248 15.5553 1.64266C15.7351 1.76285 15.8753 1.93367 15.9581 2.13352C16.0409 2.33338 16.0626 2.5533 16.0204 2.76546C15.9782 2.97763 15.874 3.17252 15.721 3.32548C15.5681 3.47845 15.3732 3.58262 15.161 3.62482C14.9488 3.66702 14.7289 3.64536 14.5291 3.56258C14.3292 3.47979 14.1584 3.33961 14.0382 3.15974C13.918 2.97987 13.8539 2.76841 13.8539 2.55208C13.8539 2.262 13.9691 1.9838 14.1742 1.77869C14.3793 1.57357 14.6575 1.45833 14.9476 1.45833ZM23.231 15.6698L18.258 7.27709C18.1298 7.05845 17.9463 6.87736 17.7261 6.75195C17.5058 6.62653 17.2564 6.5612 17.003 6.5625C16.7496 6.56118 16.5004 6.62651 16.2802 6.75193C16.0601 6.87735 15.8768 7.05846 15.7488 7.27709L13.3644 11.3021L9.27744 4.36589C9.14866 4.14701 8.96495 3.96556 8.7445 3.83949C8.52405 3.71342 8.27449 3.6471 8.02054 3.6471C7.76659 3.6471 7.51704 3.71342 7.29658 3.83949C7.07613 3.96556 6.89242 4.14701 6.76364 4.36589L0.100879 15.6716C0.0356615 15.7823 0.00086564 15.9083 1.59438e-05 16.0368C-0.000833752 16.1654 0.0322928 16.2918 0.0960404 16.4034C0.159788 16.515 0.251892 16.6077 0.363024 16.6722C0.474155 16.7368 0.600366 16.7708 0.728874 16.7708H22.6039C22.7326 16.7708 22.859 16.7367 22.9702 16.672C23.0815 16.6074 23.1737 16.5144 23.2374 16.4025C23.3011 16.2907 23.334 16.164 23.3329 16.0353C23.3318 15.9066 23.2966 15.7805 23.231 15.6698ZM8.02054 5.10417L10.1688 8.75H5.87223L8.02054 5.10417ZM2.00492 15.3125L5.01273 10.2083H11.0284L12.7364 13.1068L14.0362 15.3125H2.00492ZM15.7287 15.3125L14.2103 12.7349L17.003 8.02084L21.3278 15.3125H15.7287Z" fill="#60646C"/>
</svg>
