<svg width="19" height="19" viewBox="0 0 19 19" fill="none" xmlns="http://www.w3.org/2000/svg">
<path d="M13.8542 10.2083H15.9997C15.8324 11.6866 15.1684 13.0644 14.1164 14.1164C13.0644 15.1684 11.6866 15.8324 10.2083 15.9997V13.8542C10.2083 13.6608 10.1315 13.4753 9.99477 13.3386C9.85803 13.2018 9.67256 13.125 9.47917 13.125C9.28578 13.125 9.10032 13.2018 8.96357 13.3386C8.82683 13.4753 8.75 13.6608 8.75 13.8542V15.9997C7.2717 15.8324 5.89392 15.1684 4.84192 14.1164C3.78993 13.0644 3.12597 11.6866 2.9586 10.2083H5.10417C5.29756 10.2083 5.48302 10.1315 5.61977 9.99477C5.75652 9.85802 5.83334 9.67255 5.83334 9.47917C5.83334 9.28578 5.75652 9.10031 5.61977 8.96357C5.48302 8.82682 5.29756 8.75 5.10417 8.75H2.9586C3.12597 7.2717 3.78993 5.89392 4.84192 4.84192C5.89392 3.78992 7.2717 3.12596 8.75 2.95859V5.10417C8.75 5.29755 8.82683 5.48302 8.96357 5.61977C9.10032 5.75651 9.28578 5.83333 9.47917 5.83333C9.67256 5.83333 9.85803 5.75651 9.99477 5.61977C10.1315 5.48302 10.2083 5.29755 10.2083 5.10417V2.95859C11.6866 3.12596 13.0644 3.78992 14.1164 4.84192C15.1684 5.89392 15.8324 7.2717 15.9997 8.75H13.8542C13.6608 8.75 13.4753 8.82682 13.3386 8.96357C13.2018 9.10031 13.125 9.28578 13.125 9.47917C13.125 9.67255 13.2018 9.85802 13.3386 9.99477C13.4753 10.1315 13.6608 10.2083 13.8542 10.2083ZM18.9583 9.47917C18.9583 11.354 18.4024 13.1867 17.3608 14.7455C16.3192 16.3044 14.8388 17.5193 13.1067 18.2368C11.3746 18.9542 9.46866 19.142 7.62988 18.7762C5.7911 18.4104 4.10207 17.5076 2.77639 16.182C1.4507 14.8563 0.5479 13.1672 0.182144 11.3285C-0.183612 9.48968 0.00410718 7.58374 0.721563 5.85165C1.43902 4.11956 2.65399 2.63911 4.21283 1.59753C5.77167 0.555944 7.60437 0 9.47917 0C11.9924 0.002654 14.4019 1.0022 16.179 2.77931C17.9561 4.55643 18.9557 6.96595 18.9583 9.47917ZM17.5 9.47917C17.5 7.8928 17.0296 6.34205 16.1483 5.02303C15.2669 3.70401 14.0142 2.67596 12.5486 2.06888C11.083 1.46181 9.47027 1.30297 7.91438 1.61245C6.3585 1.92194 4.92932 2.68585 3.80759 3.80758C2.68585 4.92932 1.92194 6.35849 1.61246 7.91438C1.30297 9.47027 1.46181 11.083 2.06889 12.5486C2.67597 14.0142 3.70402 15.2669 5.02304 16.1482C6.34205 17.0296 7.8928 17.5 9.47917 17.5C11.6057 17.4976 13.6444 16.6518 15.1481 15.1481C16.6518 13.6444 17.4976 11.6057 17.5 9.47917Z" fill="#3F7FC0"/>
</svg>
