<svg width="13" height="7" viewBox="0 0 13 7" fill="none" xmlns="http://www.w3.org/2000/svg">
<path d="M12.2108 6.58591C12.1585 6.63821 12.0965 6.6797 12.0282 6.70801C11.9599 6.73632 11.8867 6.75089 11.8128 6.75089C11.7389 6.75089 11.6657 6.73632 11.5974 6.70801C11.5291 6.6797 11.4671 6.63821 11.4148 6.58591L6.18781 1.35818L0.960781 6.58591C0.855234 6.69146 0.71208 6.75076 0.562813 6.75076C0.413546 6.75076 0.270392 6.69146 0.164844 6.58591C0.0592961 6.48036 2.94241e-09 6.33721 0 6.18794C-2.94241e-09 6.03868 0.0592961 5.89552 0.164844 5.78997L5.78984 0.164974C5.84208 0.112674 5.90412 0.0711852 5.97241 0.0428778C6.0407 0.0145704 6.11389 0 6.18781 0C6.26173 0 6.33493 0.0145704 6.40322 0.0428778C6.4715 0.0711852 6.53354 0.112674 6.58578 0.164974L12.2108 5.78997C12.2631 5.84222 12.3046 5.90425 12.3329 5.97254C12.3612 6.04083 12.3758 6.11402 12.3758 6.18794C12.3758 6.26186 12.3612 6.33506 12.3329 6.40335C12.3046 6.47163 12.2631 6.53367 12.2108 6.58591Z" fill="#60646C"/>
</svg>
